<svg width="331" height="384" viewBox="0 0 331 384" fill="none" xmlns="http://www.w3.org/2000/svg">
<path d="M9.60659 2.66665C7.20659 4.13331 4.13992 7.19998 2.67325 9.59998C0.00658442 13.8666 0.00658436 16.8 0.00658436 191.733C0.00658436 386.8 -0.526749 373.2 8.00658 380.533L12.2733 384H164.54H316.94L321.473 380.933C324.007 379.333 327.073 375.867 328.273 373.333C330.54 368.933 330.673 357.6 330.673 192C330.673 26.4 330.54 15.0666 328.273 10.6666C327.073 8.13331 324.007 4.66665 321.473 3.06665L316.94 -2.00272e-05H165.473C16.6733 -2.00272e-05 13.8733 -2.00272e-05 9.60659 2.66665ZM265.607 35.6C278.14 36.4 278.54 36.5333 279.34 39.8666C280.673 46.2666 282.94 140.133 283.607 224C284.407 314.4 283.34 339.067 278.673 343.333C273.607 347.867 259.073 348.667 174.673 348.667C94.9399 348.667 62.2733 347.333 56.0066 344C51.4733 341.6 48.6733 312.133 47.2066 250.267L46.2733 214.667H62.6733C90.1399 214.667 120.273 220.267 137.207 228.533C146.407 233.067 155.34 240.8 157.34 246.133C162.807 260.267 149.473 274.4 129.073 276.4C117.74 277.467 112.273 280.533 110.673 286.8C106.54 302.133 118.673 308.667 140.407 302.8C184.94 290.667 196.54 261.467 196.273 160.667C196.273 122 194.94 93.3333 192.007 64.6667C191.34 58 190.407 48.6666 190.007 43.6L189.073 34.6666H220.94C238.407 34.6666 258.54 35.0666 265.607 35.6Z" fill="#7B2D26"/>
</svg>
