<svg width="583" height="161" viewBox="0 0 583 161" fill="none" xmlns="http://www.w3.org/2000/svg">
<path d="M268.267 79.0667L268.667 158.133L280.667 158.533C297.333 159.067 298.4 158.667 298.933 151.867L299.333 146.267L302.8 149.733C309.2 156.133 317.067 159.2 329.067 159.867C338.533 160.4 341.467 160 350.133 156.933C362.267 152.533 369.867 147.067 376.8 137.867C389.067 121.333 392.133 97.8667 384.933 77.3333C378.933 60.6667 364.667 47.8667 345.733 42.1333C332.267 38 316 40.8 305.333 49.0667L299.333 53.6L298.667 27.2L298 0.8L282.933 0.4L268 -2.10048e-07L268.267 79.0667ZM340.667 70.9333C347.2 74 356 83.2 356 86.9333C356 88.2667 356.667 89.7333 357.333 90.1333C359.2 91.2 359.067 105.333 357.067 110.933C352.267 125.2 342.4 132.133 326.8 132.133C308.8 132.133 298.533 121.6 297.6 102.133C296.8 86.9333 303.867 74.5333 316 69.6C322 67.2 334.267 67.8667 340.667 70.9333Z" fill="#7B2D26"/>
<path d="M70.6667 54.6667C70.6667 90.8 70.1333 109.2 69.2 112.267C66.9333 118.667 62 124.933 57.2 127.333C48 131.867 31.3333 128.8 23.6 120.933C21.7333 119.067 19.6 117.467 18.9333 117.467C17.4667 117.467 0 138.267 0 140C0 142.267 11.2 150.933 19.4667 154.933C39.3333 164.8 68.4 161.333 83.8667 147.333C92.2667 139.867 95.4667 135.333 99.0667 126.4C101.6 119.867 101.867 116.133 102.4 60.4L102.933 1.4667H86.8H70.6667V54.6667Z" fill="#7B2D26"/>
<path d="M412 80.1333V158.933L427.067 158.533L442 158.133L442.4 79.7333L442.667 1.46667H427.333H412V80.1333Z" fill="#7B2D26"/>
<path d="M171.6 42.1333C151.067 47.7333 134.8 61.8666 128.8 79.4666C127.467 83.0666 126.134 91.4666 125.734 98.1333C124.934 112 127.6 122.133 135.334 134.267C145.067 149.467 166.267 160.133 186.667 160.133C207.067 160 226.534 149.467 237.734 132.533C239.734 129.333 241.334 126 241.334 124.933C241.334 123.867 241.867 122.667 242.4 122.267C244.534 121.067 247.067 103.067 246.267 95.2C244.267 73.2 230.667 54.2666 211.2 46.4C194.4 39.6 184.8 38.5333 171.6 42.1333ZM197.467 70C203.334 72.4 211.734 80.8 214.134 86.6666C216.534 92.5333 216.534 107.867 214 113.867C208.934 126.133 199.6 132.133 185.734 132.133C170.667 132.133 160.4 123.867 156.534 108.8C154.267 100.533 155.467 92 159.734 83.4666C162.4 78 169.867 71.4666 175.067 69.7333C181.334 67.7333 192.4 67.8666 197.467 70Z" fill="#7B2D26"/>
<path d="M527.733 42C520 44 511.6 49.7333 506.267 56.4C501.333 62.5333 500 61.3333 500 50.4V42.8H484.667H469.333L469.6 100.4L470 158.133L485.067 158.533L500 158.933V126.533C500 96.8 500.267 93.6 502.8 88.1333C506.133 80.8 512.267 74.1333 518.933 70.6667C526 67.0667 537.6 67.2 542.933 70.9333C550.667 76.5333 551.2 79.7333 552 120.8L552.667 158.133L567.734 158.533L582.667 158.933V120.533C582.667 98.4 582.134 79.8667 581.334 76.8C576.4 58 567.6 47.8667 551.467 42.4C543.733 39.7333 536.4 39.6 527.733 42Z" fill="#7B2D26"/>
</svg>
