<svg width="668" height="534" viewBox="0 0 668 534" fill="none" xmlns="http://www.w3.org/2000/svg">
<path d="M567.333 0.333008C622.561 0.333008 667.333 45.1055 667.333 100.334V433.667C667.333 488.895 622.561 533.667 567.333 533.667H100.667C45.4387 533.667 0.667264 488.895 0.666992 433.667V100.334C0.666992 45.1055 45.4385 0.333008 100.667 0.333008H567.333ZM414.001 282.001H414C366.962 317.278 302.426 317.554 255.115 282.828L254.001 282.001L67.333 142.001V433.667C67.3333 452.076 82.2577 467 100.667 467H567.333C585.742 467 600.667 452.076 600.667 433.667V142.001L414.001 282.001ZM100.667 67C94.593 67 88.8985 68.6244 83.9941 71.4629C85.1359 72.1236 86.2524 72.8577 87.334 73.6689L294.001 228.667H294C317.705 246.445 350.296 246.445 374.001 228.667L580.667 73.667L581.362 73.1602C582.224 72.5473 583.106 71.9818 584.004 71.4619C579.1 68.6241 573.406 67 567.333 67H100.667Z" fill="#7B2D26"/>
</svg>
