<svg width="159" height="151" viewBox="0 0 159 151" fill="none" xmlns="http://www.w3.org/2000/svg">
<path fill-rule="evenodd" clip-rule="evenodd" d="M20.2419 6.46952C30.1672 -3.39933 46.5094 -1.64265 54.8201 9.45867L65.1013 23.192C71.8636 32.2249 71.2668 44.8495 63.2399 52.8308L61.2929 54.7666C61.2081 55.0135 61.0019 55.7898 61.231 57.2652C61.7463 60.5876 64.5208 67.6353 76.1677 79.2162C87.8106 90.793 94.908 93.5651 98.2778 94.082C99.8049 94.316 100.604 94.0975 100.851 94.0111L104.177 90.7033C111.313 83.6083 122.279 82.2818 131.113 87.0849L146.69 95.5529C160.028 102.804 163.399 120.934 152.47 131.8L140.888 143.316C137.239 146.944 132.331 149.97 126.342 150.529C111.593 151.904 77.2008 150.15 41.0646 114.218C7.32715 80.6723 0.852972 51.4184 0.0338138 37.0049C-0.380372 29.7166 3.06365 23.5503 7.44456 19.1942L20.2419 6.46952ZM45.0297 16.788C40.899 11.2703 33.2001 10.8316 28.8651 15.142L16.0678 27.8667C13.3778 30.5414 12.0836 33.489 12.244 36.311C12.8949 47.763 18.1235 74.1603 49.6878 105.546C82.802 138.472 113.387 139.454 125.207 138.352C127.622 138.127 130.024 136.872 132.265 134.644L143.847 123.127C148.556 118.446 147.517 109.922 140.849 106.297L125.272 97.8301C120.971 95.4917 115.931 96.263 112.8 99.3759L109.087 103.069L104.776 98.7318C109.087 103.069 109.082 103.074 109.076 103.08L109.064 103.091L109.038 103.116L108.985 103.167L108.866 103.278C108.781 103.356 108.682 103.442 108.572 103.534C108.35 103.718 108.078 103.925 107.753 104.143C107.1 104.58 106.238 105.056 105.154 105.459C102.946 106.282 100.034 106.724 96.4237 106.17C89.3565 105.086 79.9949 100.268 67.5449 87.8888C55.0989 75.5138 50.2399 66.1949 49.1454 59.1401C48.5858 55.5327 49.0321 52.6195 49.8648 50.4095C50.2729 49.3264 50.7538 48.4652 51.1951 47.8138C51.4153 47.489 51.6247 47.2174 51.8095 46.9968C51.902 46.8865 51.9884 46.7888 52.067 46.7034L52.179 46.5845L52.2303 46.5319L52.2546 46.5072L52.2665 46.4953C52.2723 46.4895 52.2782 46.4837 56.5901 50.8198L52.2782 46.4837L54.6166 44.1585C58.1115 40.6838 58.6007 34.9158 55.3109 30.5214L45.0297 16.788Z" fill="#7B2D26"/>
</svg>
