<svg width="634" height="800" viewBox="0 0 634 800" fill="none" xmlns="http://www.w3.org/2000/svg">
<g clip-path="url(#clip0_20_2)">
<path d="M632.432 799.93H0.786C0.352 799.93 0 799.43 0 798.808C0 798.186 0.352 797.686 0.786 797.686H632.432C632.866 797.686 633.218 798.186 633.218 798.808C633.218 799.43 632.866 799.93 632.432 799.93Z" fill="#CBCBCB"/>
<path d="M461.046 189.932H456.654V69.629C456.654 60.4853 454.853 51.4311 451.354 42.9834C447.855 34.5357 442.727 26.8599 436.261 20.3943C429.796 13.9286 422.12 8.79975 413.672 5.3005C405.225 1.80124 396.171 0.000131321 387.027 0L132.146 0C113.68 0.00026521 95.9697 7.33614 82.9119 20.3939C69.8542 33.4516 62.5183 51.1616 62.5181 69.628V729.628C62.5181 748.095 69.8538 765.805 82.9116 778.863C95.9693 791.921 113.679 799.257 132.146 799.257H387.027C405.494 799.257 423.204 791.921 436.262 778.863C449.32 765.805 456.656 748.095 456.656 729.628V275.566H461.048L461.046 189.932Z" fill="#3F3D56"/>
<path d="M441.837 70.117V729.142C441.843 735.965 440.505 742.722 437.9 749.027C435.295 755.333 431.473 761.064 426.653 765.892C421.833 770.721 416.109 774.553 409.808 777.17C403.507 779.786 396.753 781.136 389.93 781.142H133.73C126.906 781.147 120.148 779.808 113.842 777.201C107.535 774.594 101.804 770.77 96.9758 765.949C92.1471 761.127 88.3155 755.401 85.6996 749.099C83.0837 742.796 81.7349 736.04 81.73 729.216V70.117C81.7251 63.2931 83.0644 56.5351 85.6713 50.2288C88.2782 43.9225 92.1017 38.1914 96.9234 33.3627C101.745 28.5341 107.471 24.7024 113.773 22.0866C120.076 19.4707 126.832 18.1218 133.656 18.117H164.797C163.267 21.8679 162.683 25.9377 163.096 29.9676C163.509 33.9976 164.908 37.8639 167.168 41.2261C169.428 44.5882 172.48 47.3429 176.055 49.2474C179.631 51.1518 183.62 52.1476 187.671 52.147H333.696C337.747 52.1476 341.736 51.1518 345.312 49.2474C348.887 47.3429 351.939 44.5882 354.199 41.2261C356.459 37.8639 357.858 33.9976 358.271 29.9676C358.684 25.9377 358.1 21.8679 356.57 18.117H389.837C396.66 18.1108 403.417 19.4485 409.722 22.0537C416.028 24.6588 421.758 28.4805 426.587 33.3004C431.416 38.1203 435.248 43.8441 437.864 50.145C440.481 56.4459 441.831 63.2004 441.837 70.023V70.117Z" fill="white"/>
<path d="M441.837 167.618V145.175H407.862V21.328C402.092 19.197 395.988 18.1101 389.837 18.118H385.415V145.175H267.565V52.148H245.118V145.175H146.349V18.118H133.734C130.434 18.113 127.142 18.4251 123.902 19.05V145.175H81.7339V167.623H123.901V219.545L81.7339 243.889V269.816L123.901 245.472V399.95H81.7339V422.397H123.901V645.75H81.7339V668.198H123.901V780.21C127.141 780.835 130.433 781.147 133.733 781.142H146.348V668.197H245.117V781.142H267.565V668.197H385.415V781.142H389.837C395.988 781.15 402.092 780.063 407.862 777.932V668.197H441.836V645.75H407.862V548.103H441.533V525.656H407.862V422.397H441.836V399.95H407.862V263.02H441.836V240.575H407.862V167.618H441.837ZM213.837 167.618L146.349 206.587V167.618H213.837ZM146.348 232.503L245.118 175.475V399.95H146.349L146.348 232.503ZM146.348 645.75V422.397H245.117V645.75H146.348ZM385.414 645.75H267.565V548.103H385.415L385.414 645.75ZM385.414 525.656H267.565V422.397H385.415L385.414 525.656ZM385.414 399.95H267.565V263.02H385.415L385.414 399.95ZM385.414 240.573H267.565V167.618H385.415L385.414 240.573Z" fill="#F2F2F2"/>
<path d="M415.07 167.876C415.07 207.508 343.31 295.795 343.31 295.795C343.31 295.795 271.55 207.508 271.55 167.876C271.621 148.891 279.212 130.707 292.662 117.307C306.112 103.907 324.324 96.3838 343.309 96.3838C362.295 96.3838 380.507 103.907 393.956 117.307C407.406 130.707 414.998 148.891 415.069 167.876H415.07Z" fill="#7B2D26"/>
<path d="M385.744 164.757C385.744 173.149 383.255 181.353 378.593 188.331C373.93 195.309 367.303 200.747 359.55 203.959C351.796 207.171 343.265 208.011 335.034 206.374C326.803 204.736 319.242 200.695 313.308 194.761C307.374 188.827 303.332 181.266 301.695 173.035C300.058 164.804 300.898 156.272 304.11 148.519C307.321 140.765 312.76 134.139 319.738 129.476C326.716 124.814 334.92 122.325 343.312 122.325C348.882 122.322 354.397 123.417 359.544 125.546C364.691 127.675 369.368 130.797 373.308 134.733C377.248 138.67 380.374 143.344 382.508 148.489C384.642 153.634 385.741 159.148 385.744 164.718V164.757Z" fill="white"/>
<path d="M343.31 347.588C353.993 347.588 362.654 338.927 362.654 328.244C362.654 317.561 353.993 308.9 343.31 308.9C332.626 308.9 323.966 317.561 323.966 328.244C323.966 338.927 332.626 347.588 343.31 347.588Z" fill="#7B2D26"/>
<path d="M481.855 383.3L458.262 391.657L461.636 364.173L477.778 362.684C476.152 369.643 477.664 376.513 481.855 383.3Z" fill="#9F616A"/>
<path d="M487.651 459.742L490.651 466.717L485.751 491.492L435.751 484.539L436.151 454.33L437.151 447.713L487.651 459.742Z" fill="#FFB6B6"/>
<path d="M515.499 780.819H498.684L492.184 722.974H515.499V780.819Z" fill="#9F616A"/>
<path d="M456.137 780.818H439.944L430.418 718.176H456.136L456.137 780.818Z" fill="#9F616A"/>
<path d="M405.446 791.336L433.38 779.764V772.207L440.827 772.329L456.018 773.07L459.983 773.258L462.736 799.931H452.96L451.224 792.464L446.753 799.931H408.759C407.608 799.991 406.466 799.708 405.476 799.118C404.486 798.528 403.693 797.658 403.197 796.618C402.851 795.615 402.89 794.519 403.307 793.543C403.723 792.567 404.487 791.78 405.45 791.335L405.446 791.336Z" fill="#090814"/>
<path d="M517.386 726.396C518.786 669.559 516.793 644.064 512.937 575.112C520.007 529.291 486.311 499.402 486.311 499.402L489.411 475.388L434.911 476.627L435.838 499.406L421.749 537.674C416.049 593.24 429.742 725.352 430.858 724.966C461.108 724.892 456.258 726.396 456.258 726.396C461.404 708.805 460.958 703.331 459.358 647.714L463.445 585.489L478.912 662.008L491.027 726.396C490.272 727.072 518.721 726.373 517.386 726.396Z" fill="#090814"/>
<path d="M499.092 342.02C499.094 346.437 498.012 350.787 495.94 354.688C493.868 358.589 490.871 361.921 487.21 364.394C483.55 366.866 479.339 368.401 474.946 368.866C470.554 369.33 466.114 368.71 462.018 367.058C457.921 365.406 454.293 362.774 451.451 359.393C448.609 356.012 446.641 351.985 445.719 347.665C444.796 343.345 444.949 338.866 446.162 334.619C447.376 330.372 449.613 326.487 452.678 323.307L452.808 323.177C453.024 322.95 453.24 322.724 453.467 322.508C453.47 322.509 453.472 322.509 453.475 322.508C453.476 322.505 453.476 322.502 453.475 322.5C453.785 322.274 454.07 322.017 454.328 321.734C457.971 316.643 462.101 312.376 472.105 315.042C486.511 318.874 499.092 327.113 499.092 342.02Z" fill="#090814"/>
<path d="M350.859 330.468C350.798 331.912 351.054 333.352 351.609 334.686C352.165 336.02 353.006 337.216 354.074 338.19C355.142 339.164 356.41 339.892 357.79 340.322C359.17 340.753 360.627 340.876 362.059 340.682L431.651 397.8L442.28 379.11L370.531 328.843C370.046 326.459 368.704 324.336 366.759 322.876C364.813 321.416 362.4 320.72 359.976 320.92C357.552 321.12 355.285 322.202 353.605 323.961C351.925 325.72 350.949 328.034 350.861 330.465L350.859 330.468Z" fill="#9F616A"/>
<path d="M461.036 414.641C461.036 414.641 458.769 419.341 449.951 412.663C442.892 407.314 409.192 384.234 401.707 374.479C400.137 375.189 398.375 375.356 396.699 374.954C395.023 374.552 393.528 373.604 392.45 372.259L410.862 354.533C416.64 354.924 416.699 358.789 416.204 361.009L431.004 366.889L469.544 389.029L462.738 411.27L461.036 414.641Z" fill="#E6E6E6"/>
<path d="M465.459 370.892C477.956 370.892 488.087 360.761 488.087 348.264C488.087 335.767 477.956 325.636 465.459 325.636C452.962 325.636 442.831 335.767 442.831 348.264C442.831 360.761 452.962 370.892 465.459 370.892Z" fill="#9F616A"/>
<path d="M434.593 460.503L434.361 447.88C433.443 446.619 425.743 435.611 427.469 424.615C427.899 422.007 428.86 419.515 430.293 417.294C431.726 415.073 433.601 413.17 435.8 411.704L438.842 404.624L443.342 394.158L456.518 386.314L458.344 382.597L459.844 379.51L480.072 378.037L482.501 383.724L482.589 383.735C486.706 384.67 490.574 386.481 493.929 389.045C497.612 391.839 500.598 395.449 502.651 399.592C504.705 403.734 505.771 408.296 505.766 412.919L505.655 427.589L505.633 429.689L505.622 431.725L494.282 462.248L493.851 463.432L489.403 475.392L490.167 476.653C490.989 478.026 491.293 479.648 491.023 481.225C490.753 482.803 489.927 484.231 488.695 485.253L488.164 492.731L487.201 492.465L481.725 490.938L434.587 492.73C434.587 492.73 431.783 464.244 434.593 460.503Z" fill="#E6E6E6"/>
<path d="M489.142 354.198C488.937 354.165 488.732 354.118 488.527 354.09C484.997 353.464 481.468 352.849 477.947 352.212L477.623 344.235L473.36 351.38C463.635 354.607 454.535 352.78 445.976 348.755C443.154 347.415 440.415 345.904 437.776 344.233C436.906 330.743 442.36 322.106 452.51 323.012C452.881 323.045 453.146 322.667 453.471 322.504C453.473 322.505 453.476 322.505 453.479 322.504C453.48 322.501 453.48 322.498 453.479 322.496C454.029 322.237 454.593 321.988 455.149 321.762C459.543 320.045 464.334 319.61 468.966 320.508C473.597 321.406 477.879 323.6 481.313 326.835C488.224 333.428 491.333 344.319 489.142 354.198Z" fill="#090814"/>
<path d="M474.398 315.687C474.624 316.467 475.072 317.164 475.687 317.694C476.302 318.224 477.057 318.565 477.861 318.674C480.904 322.435 484.388 326.418 489.161 327.174C490.524 327.463 491.946 327.218 493.133 326.488C493.278 326.398 493.413 326.291 493.533 326.17C494.661 325.097 494.75 322.939 493.411 322.132C499.411 324.511 502.911 330.983 503.8 337.366C504.689 343.749 503.457 350.199 502.65 356.593C501.843 362.987 501.489 369.703 504.002 375.644C506.967 382.644 513.782 387.681 521.216 389.285C521.88 389.429 538.38 388.419 543.308 385.778C550.045 382.227 555.654 376.805 560.246 370.732C552.335 376.341 541.405 378.443 532.801 374.006C525.101 370.023 520.55 361.66 518.561 353.23C516.572 344.8 524.939 334.446 524.032 325.83C523.125 317.214 512.719 309.897 507.032 303.358C503.403 299.187 498.049 296.101 492.532 296.621C490.668 296.799 488.863 297.376 487.242 298.314C485.62 299.252 484.22 300.528 483.137 302.056C482.053 303.584 481.312 305.328 480.963 307.168C480.614 309.009 480.666 310.902 481.115 312.721C479.544 310.494 475.484 310.984 474.477 313.521C474.206 314.213 474.178 314.977 474.398 315.687Z" fill="#090814"/>
<path d="M488.527 354.087C488.527 354.087 481.827 329.067 453.09 323.292C453.057 323.282 452.95 323.238 452.809 323.173C452.712 323.114 452.612 323.061 452.509 323.014C452.833 322.83 453.145 322.669 453.47 322.506C453.473 322.507 453.476 322.507 453.478 322.506C453.479 322.503 453.479 322.501 453.478 322.498C453.759 322.239 454.04 321.98 454.331 321.732L455.151 321.765C455.151 321.765 483.983 317.194 488.527 354.087Z" fill="#7B2D26"/>
<path d="M505.678 534.141C506.577 533.009 507.217 531.695 507.552 530.289C507.888 528.884 507.911 527.422 507.621 526.006C507.33 524.59 506.733 523.256 505.871 522.096C505.009 520.936 503.903 519.98 502.631 519.294L517.507 475.254L505.36 428.577L485.773 437.432L497.858 472.638L488.813 523.877C487.797 526.091 487.629 528.601 488.342 530.93C489.054 533.26 490.598 535.246 492.679 536.513C494.76 537.779 497.234 538.237 499.63 537.799C502.027 537.362 504.179 536.059 505.678 534.139V534.141Z" fill="#9F616A"/>
<path d="M487.746 390.126C487.746 390.126 492.346 387.656 495.546 398.247C498.108 406.726 515.539 452.76 515.853 465.053C517.54 465.403 519.063 466.304 520.182 467.614C521.301 468.925 521.952 470.571 522.033 472.292L496.716 475.792C492.273 472.078 494.5 468.916 496.206 467.412L487.583 452.806L469.559 413.374L484.384 391.847L487.746 390.126Z" fill="#E6E6E6"/>
<path d="M472.898 791.336L495.498 779.764V772.207L501.524 772.329L513.815 773.07L517.023 773.258L519.25 799.931H511.34L509.94 792.464L506.322 799.931H475.579C474.573 799.932 473.592 799.61 472.782 799.014C471.971 798.418 471.372 797.578 471.073 796.617C470.774 795.656 470.79 794.625 471.119 793.674C471.448 792.723 472.072 791.902 472.901 791.331L472.898 791.336Z" fill="#090814"/>
</g>
<defs>
<clipPath id="clip0_20_2">
<rect width="633.218" height="799.931" fill="white"/>
</clipPath>
</defs>
</svg>
